<svg height="512" viewBox="0 0 64 64" width="512" xmlns="http://www.w3.org/2000/svg"><g id="Analysis_Report" data-name="Analysis Report"><path d="m60.97 20h-17.97v-17a17.994 17.994 0 0 1 17.97 17z" fill="#ff3051"/><path d="m60.97 20h-4a18 18 0 0 0 -13.97-16.55v-.45a17.994 17.994 0 0 1 17.97 17z" fill="#cd2a00"/><path d="m56.97 24c.02.33.03.67.03 1a18 18 0 0 1 -18 18 17.1 17.1 0 0 1 -4-.46 17.75 17.75 0 0 1 -9.21-5.33l13.21-13.21z" fill="#57a4ff"/><path d="m39 7v17l-13.21 13.21a17.977 17.977 0 0 1 9.21-29.75 17.1 17.1 0 0 1 4-.46z" fill="#9cdd05"/><path d="m35 42.54v18.46h-32v-50h8v-8h24v4.46a17.977 17.977 0 0 0 -9.21 29.75 17.75 17.75 0 0 0 9.21 5.33zm-8 6.46a8 8 0 0 0 -7.95-8h-.05a8 8 0 0 0 -.05 16h.05a8 8 0 0 0 8-8z" fill="#fee9ab"/><path d="m19.05 41h-.05a8 8 0 0 0 -.05 16h.05a8 8 0 0 0 .05-16z" fill="#ffd422"/><path d="m11 3v8h-8z" fill="#ff3051"/><path d="m27 49a8 8 0 0 1 -8 8h-.05a8.163 8.163 0 0 1 -1.93-.25 8.005 8.005 0 0 0 -.04-15.5 8.4 8.4 0 0 1 2.02-.25h.05a8 8 0 0 1 7.95 8z" fill="#ebbf00"/><path d="m58 24a1 1 0 0 0 -1-1h-17v-16a1 1 0 0 0 -1-1 18.589 18.589 0 0 0 -3 .26v-3.26a1 1 0 0 0 -1-1h-24a1.033 1.033 0 0 0 -.71.29l-8 8a1.033 1.033 0 0 0 -.29.71v50a1 1 0 0 0 1 1h32a1 1 0 0 0 1-1v-17.26a18.589 18.589 0 0 0 3 .26 19.017 19.017 0 0 0 19-19c0-.27-.01-.54-.02-.81a1.108 1.108 0 0 0 .02-.19zm-20-15.97v15.56l-12.16 12.16a16.991 16.991 0 0 1 12.16-27.72zm-28-2.62v4.59h-4.59zm24 54.59h-30v-48h7a1 1 0 0 0 1-1v-7h22v2.69a18.973 18.973 0 0 0 0 36.62zm5-18a16.928 16.928 0 0 1 -11.8-4.79l12.21-12.21h16.59a17.024 17.024 0 0 1 -17 17z"/><path d="m43 21h18v-.006a.993.993 0 0 0 .969-1.048 18.983 18.983 0 0 0 -18.969-17.946 1 1 0 0 0 -1 1v17a1 1 0 0 0 1 1zm16.882-2h-15.882v-14.971a16.984 16.984 0 0 1 15.882 14.971z"/><path d="m19 40a9 9 0 1 0 9 9 9.014 9.014 0 0 0 -9-9zm0 16a7 7 0 1 1 7-7 7.008 7.008 0 0 1 -7 7z"/><path d="m22 51a3.01 3.01 0 0 1 -2 2.82v1.18h-2v-1.18a3.01 3.01 0 0 1 -2-2.82h2a1 1 0 1 0 1-1 3 3 0 0 1 -1-5.82v-1.18h2v1.18a3.01 3.01 0 0 1 2 2.82h-2a1 1 0 1 0 -1 1 3.009 3.009 0 0 1 3 3z"/><path d="m8 16h10v2h-10z"/><path d="m8 22h10v2h-10z"/><path d="m8 28h10v2h-10z"/><path d="m8 34h10v2h-10z"/><path d="m40 48h4v2h-4z"/><path d="m46 48h16v2h-16z"/><path d="m40 54h4v2h-4z"/><path d="m46 54h16v2h-16z"/><path d="m40 60h4v2h-4z"/><path d="m46 60h16v2h-16z"/></g></svg>